# xmcd
#
# Track frame offsets:
#	183
#	15398
#	31275
#	49048
#	58570
#	72035
#	85503
#	102208
#	113183
#	125468
#	139528
#	149873
#	160420
#	172295
#	184753
#	198735
#	212568
#	225375
#	233653
#	245708
#
# Disc length: 3493 seconds
#
# Revision: 1
# Processed by: cddbd v1.5PL3 Copyright (c) Steve Scherf et al.
# Submitted via: audiograbber 1.83.01
#
DISCID=180da314
DTITLE=Brian Sklar - Brian Sklar
DYEAR=1991
DGENRE=Country
TTITLE0=In The Movies
TTITLE1=Columbus Station
TTITLE2=It Won't Be Long
TTITLE3=Candy Kisses
TTITLE4=Hell Or Houston
TTITLE5='57
TTITLE6=Forever Amber
TTITLE7=Not Tonight
TTITLE8=Ain't No Fun To Be Alone In San Antone
TTITLE9=Old Friends
TTITLE10=Big Mammou
TTITLE11=Countryfied
TTITLE12=Cotton-Eyed Joe
TTITLE13=Daddy On The Radio
TTITLE14=I Wanna Be A Cowboy
TTITLE15=The Fiddlin' Of Jacques Pierre Bordeaux
TTITLE16=Someone To Hold On To
TTITLE17=Red River Jig
TTITLE18=Crazy People
TTITLE19=Long Black Veil
EXTD=
EXTT0=
EXTT1=
EXTT2=
EXTT3=
EXTT4=
EXTT5=
EXTT6=
EXTT7=
EXTT8=
EXTT9=
EXTT10=
EXTT11=
EXTT12=
EXTT13=
EXTT14=
EXTT15=
EXTT16=
EXTT17=
EXTT18=
EXTT19=
PLAYORDER=
